# xmcd
#
# Track frame offsets:
#	150
#	16778
#	31699
#	49832
#	67283
#	81542
#	94981
#	112131
#	126655
#	141532
#	156087
#	172577
#	190677
#	208410
#	227044
#	241249
#	257083
#	273539
#	290605
#	309423
#	322674
#	340586
#
# Disc length: 4720 seconds
#
# Revision: 1
# Processed by: cddbd v1.5.2PL0 Copyright (c) Steve Scherf et al.
# Submitted via: audiograbber 1.83.01
#
DISCID=46126e16
DTITLE=Various Artist - CDX Volume 430 September 2007
DYEAR=2007
DGENRE=Country
TTITLE0=Cole Deggs and The Lonesome - Girl Next Door
TTITLE1=Eagles - How Long
TTITLE2=Little Big Town - I'm With The Band
TTITLE3=Craig Morgan - International Harvestor
TTITLE4=Bucky Covington - It's Good To Be Us
TTITLE5=Jypsi - Love Is A Drug
TTITLE6=Carrie Underwood - So Small
TTITLE7=Kellie Pickler - Things That Never Cross A Man's Mind
TTITLE8=John Berry - A Woman Like You
TTITLE9=Townsend and O'Donnell - Cowboys Want It (Cow Girls Got It)
TTITLE10=Shawn King and Willie Nelson - I Give
TTITLE11=Collin Raye - Quitters
TTITLE12=Trent Willmon - There Is A God
TTITLE13=Buick Audra - Going Home
TTITLE14=Monty Lane Allen - Great Big World
TTITLE15=J D Hardy - Lonely Road
TTITLE16=Darren Kozelsky - Running Kind
TTITLE17=Eric Lee Beddingfield - Small Town America
TTITLE18=Amber Rhodes - So Long Goodbye
TTITLE19=John Keaton - This Ain't No Yard Sale
TTITLE20=Jenna Wilson and Danny Davis - Total Strangers
TTITLE21=Jeff Lindsey - Gitchua Fatboy
EXTD=
EXTT0=
EXTT1=
EXTT2=
EXTT3=
EXTT4=
EXTT5=
EXTT6=
EXTT7=
EXTT8=
EXTT9=
EXTT10=
EXTT11=
EXTT12=
EXTT13=
EXTT14=
EXTT15=
EXTT16=
EXTT17=
EXTT18=
EXTT19=
EXTT20=
EXTT21=
PLAYORDER=
